<svg width="200" height="3940" viewBox="0 0 200 3940" fill="none" xmlns="http://www.w3.org/2000/svg">
<g filter="url(#filter0_d_91_80)">
<path d="M131.333 217.871L132.749 218.366L132.93 217.848L132.735 217.336L131.333 217.871ZM48.6133 454.185L47.1976 453.689L46.9875 454.289L47.2727 454.858L48.6133 454.185ZM194 743.844L195.268 744.646L195.721 743.929L195.341 743.171L194 743.844ZM48.6133 973.677L47.3457 972.875L46.7669 973.79L47.4529 974.627L48.6133 973.677ZM194 1151.16L195.249 1151.99L195.863 1151.07L195.16 1150.21L194 1151.16ZM6 1433.84L4.751 1433.01L4.26871 1433.74L4.65939 1434.51L6 1433.84ZM151.387 1723.5L152.788 1724.04L153.024 1723.42L152.727 1722.83L151.387 1723.5ZM48.6133 1992.72L47.212 1992.18L47.0165 1992.7L47.1972 1993.21L48.6133 1992.72ZM131.333 2229.53L132.783 2229.92L132.901 2229.47L132.749 2229.04L131.333 2229.53ZM65.1573 2479.31L63.7074 2478.92L63.6094 2479.29L63.7005 2479.66L65.1573 2479.31ZM131.333 2749.02L132.801 2749.33L132.871 2749L132.79 2748.67L131.333 2749.02ZM65.1573 3064.61L63.6893 3064.3L63.6054 3064.7L63.736 3065.09L65.1573 3064.61ZM156.5 3335.5L157.971 3335.79L158.049 3335.4L157.921 3335.02L156.5 3335.5ZM99 3624.5L97.5288 3624.21L97.5 3624.35V3624.5H99ZM91 3923.5C91 3927.92 94.5817 3931.5 99 3931.5C103.418 3931.5 107 3927.92 107 3923.5C107 3919.08 103.418 3915.5 99 3915.5C94.5817 3915.5 91 3919.08 91 3923.5ZM47.2118 1.53457L129.932 218.405L132.735 217.336L50.0148 0.465428L47.2118 1.53457ZM129.918 217.375L47.1976 453.689L50.0291 454.68L132.749 218.366L129.918 217.375ZM47.2727 454.858L192.659 744.517L195.341 743.171L49.9539 453.512L47.2727 454.858ZM192.732 743.042L47.3457 972.875L49.881 974.479L195.268 744.646L192.732 743.042ZM47.4529 974.627L192.84 1152.11L195.16 1150.21L49.7737 972.726L47.4529 974.627ZM192.751 1150.33L4.751 1433.01L7.249 1434.67L195.249 1151.99L192.751 1150.33ZM4.65939 1434.51L150.046 1724.17L152.727 1722.83L7.34061 1433.17L4.65939 1434.51ZM149.985 1722.97L47.212 1992.18L50.0147 1993.25L152.788 1724.04L149.985 1722.97ZM47.1972 1993.21L129.917 2230.03L132.749 2229.04L50.0294 1992.22L47.1972 1993.21ZM129.883 2229.15L63.7074 2478.92L66.6073 2479.69L132.783 2229.92L129.883 2229.15ZM63.7005 2479.66L129.877 2749.38L132.79 2748.67L66.6141 2478.95L63.7005 2479.66ZM129.865 2748.72L63.6893 3064.3L66.6254 3064.92L132.801 2749.33L129.865 2748.72ZM63.736 3065.09L155.079 3335.98L157.921 3335.02L66.5787 3064.13L63.736 3065.09ZM155.029 3335.21L97.5288 3624.21L100.471 3624.79L157.971 3335.79L155.029 3335.21ZM97.5 3624.5V3923.5H100.5V3624.5H97.5Z" fill="black" fill-opacity="0.2"/>
</g>
<defs>
<filter id="filter0_d_91_80" x="0.268738" y="0.465454" width="199.594" height="3939.03" filterUnits="userSpaceOnUse" color-interpolation-filters="sRGB">
<feFlood flood-opacity="0" result="BackgroundImageFix"/>
<feColorMatrix in="SourceAlpha" type="matrix" values="0 0 0 0 0 0 0 0 0 0 0 0 0 0 0 0 0 0 127 0" result="hardAlpha"/>
<feOffset dy="4"/>
<feGaussianBlur stdDeviation="2"/>
<feComposite in2="hardAlpha" operator="out"/>
<feColorMatrix type="matrix" values="0 0 0 0 0 0 0 0 0 0 0 0 0 0 0 0 0 0 0.25 0"/>
<feBlend mode="normal" in2="BackgroundImageFix" result="effect1_dropShadow_91_80"/>
<feBlend mode="normal" in="SourceGraphic" in2="effect1_dropShadow_91_80" result="shape"/>
</filter>
</defs>
</svg>
