<svg width="196" height="3932" viewBox="0 0 196 3932" fill="none" xmlns="http://www.w3.org/2000/svg">
<g filter="url(#filter0_d_573_1384)">
<path d="M129.701 218.707L130.172 218.872L130.233 218.7L130.168 218.529L129.701 218.707ZM46.9805 455.021L46.5086 454.856L46.4386 455.056L46.5336 455.246L46.9805 455.021ZM192.367 744.681L192.79 744.948L192.941 744.709L192.814 744.456L192.367 744.681ZM46.9805 974.513L46.558 974.246L46.365 974.551L46.5937 974.83L46.9805 974.513ZM192.367 1152L192.784 1152.28L192.988 1151.97L192.754 1151.68L192.367 1152ZM4.36719 1434.68L3.95085 1434.4L3.79009 1434.64L3.92032 1434.9L4.36719 1434.68ZM149.754 1724.34L150.221 1724.52L150.3 1724.31L150.201 1724.11L149.754 1724.34ZM46.9805 1993.56L46.5134 1993.38L46.4482 1993.55L46.5085 1993.72L46.9805 1993.56ZM129.701 2230.37L130.184 2230.5L130.223 2230.35L130.173 2230.2L129.701 2230.37ZM63.5245 2480.14L63.0412 2480.02L63.0085 2480.14L63.0389 2480.26L63.5245 2480.14ZM129.701 2749.86L130.19 2749.96L130.213 2749.85L130.186 2749.74L129.701 2749.86ZM63.5245 3065.44L63.0352 3065.34L63.0072 3065.48L63.0507 3065.6L63.5245 3065.44ZM154.867 3336.34L155.358 3336.43L155.384 3336.3L155.341 3336.18L154.867 3336.34ZM97.3672 3625.34L96.8768 3625.24L96.8672 3625.29V3625.34H97.3672ZM94.7005 3924.34C94.7005 3925.81 95.8944 3927 97.3672 3927C98.8399 3927 100.034 3925.81 100.034 3924.34C100.034 3922.86 98.8399 3921.67 97.3672 3921.67C95.8944 3921.67 94.7005 3922.86 94.7005 3924.34ZM46.5133 2.01474L129.233 218.885L130.168 218.529L47.4477 1.65836L46.5133 2.01474ZM129.229 218.542L46.5086 454.856L47.4524 455.186L130.172 218.872L129.229 218.542ZM46.5336 455.246L191.92 744.905L192.814 744.456L47.4274 454.797L46.5336 455.246ZM191.945 744.413L46.558 974.246L47.4031 974.781L192.79 744.948L191.945 744.413ZM46.5937 974.83L191.98 1152.32L192.754 1151.68L47.3673 974.197L46.5937 974.83ZM191.951 1151.72L3.95085 1434.4L4.78352 1434.95L192.784 1152.28L191.951 1151.72ZM3.92032 1434.9L149.307 1724.56L150.201 1724.11L4.81406 1434.45L3.92032 1434.9ZM149.287 1724.16L46.5134 1993.38L47.4476 1993.73L150.221 1724.52L149.287 1724.16ZM46.5085 1993.72L129.228 2230.53L130.173 2230.2L47.4525 1993.39L46.5085 1993.72ZM129.217 2230.24L63.0412 2480.02L64.0078 2480.27L130.184 2230.5L129.217 2230.24ZM63.0389 2480.26L129.215 2749.98L130.186 2749.74L64.0101 2480.02L63.0389 2480.26ZM129.211 2749.76L63.0352 3065.34L64.0139 3065.55L130.19 2749.96L129.211 2749.76ZM63.0507 3065.6L154.393 3336.5L155.341 3336.18L63.9983 3065.28L63.0507 3065.6ZM154.377 3336.24L96.8768 3625.24L97.8576 3625.43L155.358 3336.43L154.377 3336.24ZM96.8672 3625.34V3924.34H97.8672V3625.34H96.8672Z" fill="#DDDDDD"/>
</g>
<defs>
<filter id="filter0_d_573_1384" x="0.790039" y="0.658386" width="195.198" height="3931.34" filterUnits="userSpaceOnUse" color-interpolation-filters="sRGB">
<feFlood flood-opacity="0" result="BackgroundImageFix"/>
<feColorMatrix in="SourceAlpha" type="matrix" values="0 0 0 0 0 0 0 0 0 0 0 0 0 0 0 0 0 0 127 0" result="hardAlpha"/>
<feOffset dy="2"/>
<feGaussianBlur stdDeviation="1.5"/>
<feComposite in2="hardAlpha" operator="out"/>
<feColorMatrix type="matrix" values="0 0 0 0 0 0 0 0 0 0 0 0 0 0 0 0 0 0 0.1 0"/>
<feBlend mode="normal" in2="BackgroundImageFix" result="effect1_dropShadow_573_1384"/>
<feBlend mode="normal" in="SourceGraphic" in2="effect1_dropShadow_573_1384" result="shape"/>
</filter>
</defs>
</svg>
