<svg width="19" height="16" viewBox="0 0 19 16" fill="none" xmlns="http://www.w3.org/2000/svg">
<path id="Arrow 3" d="M1.88379 6.86035C1.3315 6.86035 0.883789 7.30807 0.883789 7.86035C0.883789 8.41264 1.3315 8.86035 1.88379 8.86035L1.88379 6.86035ZM17.9761 8.56746C18.3667 8.17694 18.3667 7.54377 17.9761 7.15325L11.6122 0.789285C11.2217 0.39876 10.5885 0.39876 10.198 0.789284C9.80745 1.17981 9.80745 1.81297 10.198 2.2035L15.8548 7.86035L10.198 13.5172C9.80745 13.9077 9.80745 14.5409 10.198 14.9314C10.5885 15.3219 11.2217 15.3219 11.6122 14.9314L17.9761 8.56746ZM1.88379 8.86035L17.269 8.86035L17.269 6.86035L1.88379 6.86035L1.88379 8.86035Z" fill="black"/>
</svg>
